<svg version="1.1" id="Layer_1" xmlns="http://www.w3.org/2000/svg" xmlns:xlink="http://www.w3.org/1999/xlink" x="0px" y="0px"
	 width="100%" viewBox="0 0 788 736" enable-background="new 0 0 788 736" xml:space="preserve">
<path fill="none" opacity="1.000000" stroke="none"
	d="
M653.050293,476.097290
	C651.960876,474.496643 651.100220,472.663849 649.747314,471.330627
	C633.160278,454.985016 616.562195,438.649231 599.800415,422.483643
	C597.008423,419.790955 596.712524,417.731842 599.366272,415.057404
	C601.630432,412.775604 601.458313,410.527649 599.494812,407.997223
	C595.751160,403.172638 593.470947,403.083832 587.290833,406.351196
	C579.240906,410.607178 571.053589,414.685883 562.645569,418.164490
	C545.418579,425.291779 527.067383,426.870544 507.892975,427.957855
	C505.645599,428.008301 503.398254,428.058746 500.247009,428.023376
	C485.840179,425.185608 470.845490,424.016876 457.139496,419.189301
	C419.768494,406.026337 390.985687,381.965393 372.198944,346.616302
	C370.840637,344.060577 369.244568,341.631195 367.257111,338.630829
	C366.395935,336.301086 365.591797,333.948334 364.664124,331.645355
	C359.252838,318.211731 359.243378,318.216431 345.746857,323.788696
	C345.625793,323.838654 345.431030,323.710022 345.134277,323.626343
	C345.134277,275.960022 345.134277,228.255539 345.134277,180.170609
	C347.385193,180.170609 349.348938,180.170563 351.312714,180.170609
	C361.307526,180.170883 371.303406,180.256104 381.296722,180.134216
	C386.009155,180.076752 387.573181,178.312698 387.211578,173.732239
	C373.196136,173.732239 359.142029,173.732239 345.459412,173.732239
	C345.459412,126.465683 345.459412,79.625618 345.459412,32.158092
	C350.034790,34.174099 353.882538,35.690887 357.573792,37.522964
	C405.892670,61.504959 454.130493,85.651550 502.552490,109.423119
	C510.200287,113.177605 518.458862,116.222694 526.776550,117.969429
	C545.646179,121.932053 564.352661,126.047043 581.639587,135.030838
	C614.170837,151.936935 637.904419,177.202911 653.030701,210.470779
	C666.978577,241.146835 669.581787,273.140717 662.262207,305.853973
	C659.845764,316.654053 655.911499,327.114502 652.058716,338.026245
	C649.848450,342.230286 647.549805,346.391571 645.481262,350.664246
	C644.855408,351.957062 644.866760,353.558319 644.897827,355.673859
	C646.371826,357.645935 647.852783,359.612854 649.318115,361.591278
	C651.251099,364.200928 653.231262,363.943634 655.653015,362.074738
	C663.609009,355.934937 663.650208,355.987732 670.815430,363.134399
	C672.231384,364.546661 673.572388,366.045044 675.081055,367.349792
	C676.332397,368.431976 677.779663,369.287628 679.330139,370.377106
	C679.330139,360.299469 679.266785,350.996582 679.340576,341.694763
	C679.772705,287.228333 680.159546,232.761246 680.803772,178.297256
	C680.871948,172.533218 678.571716,169.412506 673.718628,167.080841
	C663.089783,161.974243 652.564270,156.650940 642.025513,151.358490
	C614.892578,137.732574 587.774902,124.076309 560.652039,110.430328
	C528.604065,94.306412 496.562500,78.169685 464.508148,62.058380
	C426.976227,43.193909 389.388763,24.439030 351.937592,5.415727
	C345.342102,2.065569 339.659332,2.307743 333.143372,5.704054
	C302.659241,21.593245 272.011444,37.169048 241.396378,52.806374
	C215.688248,65.937370 189.949661,79.008820 164.215378,92.088562
	C128.948593,110.013298 93.704277,127.982666 58.386269,145.805954
	C44.002270,153.064865 29.547924,160.201569 14.932178,166.976654
	C7.940394,170.217667 5.162352,175.495392 5.053923,182.688324
	C4.923334,191.351273 4.875814,200.016129 4.870589,208.680206
	C4.819737,293.006134 4.777816,377.332092 4.749985,461.658020
	C4.739590,493.153168 4.846665,524.648560 4.735883,556.143250
	C4.707231,564.288940 7.679952,569.558533 15.391026,573.363892
	C63.846859,597.276978 112.097488,621.606018 160.407974,645.813416
	C218.797577,675.071167 277.208405,704.287048 335.513031,733.713318
	C340.571167,736.266174 344.828247,736.189880 349.584503,733.629944
	C359.804443,728.129395 370.055267,722.680969 380.389526,717.399048
	C409.060120,702.745422 437.776428,688.181091 466.481293,673.594482
	C497.147552,658.011108 527.815857,642.431702 558.493591,626.870789
	C596.415771,607.635315 634.323486,588.370911 672.307373,569.257812
	C677.203369,566.794250 679.594177,563.232056 679.752197,557.917786
	C679.920227,552.268188 680.226929,546.620178 680.271057,540.969910
	C680.370972,528.178101 680.384583,515.385132 680.306946,502.593384
	C680.300049,501.456665 679.653992,500.025299 678.823547,499.239075
	C671.826355,492.614777 664.753052,486.069092 657.608398,479.603912
	C656.308411,478.427551 654.579102,477.725739 653.050293,476.097290
M393.168365,189.625168
	C392.945801,189.872894 392.695496,190.101013 392.504608,190.371124
	C371.256683,220.433640 362.783478,253.868683 366.903778,290.329773
	C370.563324,322.713287 385.251801,350.098267 407.536407,373.302155
	C419.562134,385.823975 434.133362,395.246002 450.189850,402.171722
	C473.439941,412.200287 497.581146,415.625946 522.803711,413.180237
	C545.373840,410.991699 566.377441,404.514130 585.604065,392.534088
	C595.924438,386.103516 595.742126,386.004639 604.597717,394.627747
	C608.071655,398.010437 611.957397,400.970276 615.370789,403.879944
	C623.445129,396.057922 632.108093,387.560791 640.901428,379.200745
	C644.211792,376.053528 643.108704,373.891998 640.419373,370.901886
	C635.746460,365.706360 631.653137,359.989563 627.316772,354.491333
	C627.198669,354.039307 629.362854,351.675171 630.877136,348.949982
	C647.072266,319.805145 654.221497,288.826965 650.316528,255.411240
	C646.291443,220.968216 631.736694,192.129135 606.114868,168.744675
	C579.687683,144.625137 548.294006,132.858322 512.938354,131.192749
	C493.085236,130.257477 473.904022,134.037628 455.415558,141.328476
	C430.200745,151.271866 409.764404,167.390396 393.168365,189.625168
M770.955200,474.544678
	C754.450378,459.088867 737.932556,443.646790 721.444031,428.173584
	C702.651367,410.538208 683.869385,392.891357 665.123047,375.206909
	C662.205200,372.454346 659.643555,372.019470 656.579041,375.104614
	C643.322021,388.451111 630.027466,401.762421 616.582092,414.918488
	C613.479553,417.954315 613.345825,420.120300 616.581604,423.064606
	C624.188599,429.986389 631.718689,437.002991 639.056519,444.208618
	C669.217468,473.825775 699.194214,503.631256 729.454773,533.145874
	C740.914612,544.323242 756.204895,545.158142 767.622986,535.302368
	C772.974792,530.682800 777.712341,525.186584 781.988464,519.528503
	C787.033936,512.852417 787.786621,504.949249 786.329224,496.783051
	C784.632385,487.275391 777.906189,481.268127 770.955200,474.544678
z"/>
<path fill="#3D2D8E" opacity="1.000000" stroke="none"
	d="
M652.671204,337.730225
	C655.911499,327.114502 659.845764,316.654053 662.262207,305.853973
	C669.581787,273.140717 666.978577,241.146835 653.030701,210.470779
	C637.904419,177.202911 614.170837,151.936935 581.639587,135.030838
	C564.352661,126.047043 545.646179,121.932053 526.776550,117.969429
	C518.458862,116.222694 510.200287,113.177605 502.552490,109.423119
	C454.130493,85.651550 405.892670,61.504959 357.573792,37.522964
	C353.882538,35.690887 350.034790,34.174099 345.459412,32.158092
	C345.459412,79.625618 345.459412,126.465683 345.459412,173.732239
	C359.142029,173.732239 373.196136,173.732239 387.211578,173.732239
	C387.573181,178.312698 386.009155,180.076752 381.296722,180.134216
	C371.303406,180.256104 361.307526,180.170883 351.312714,180.170609
	C349.348938,180.170563 347.385193,180.170609 345.134277,180.170609
	C345.134277,228.255539 345.134277,275.960022 345.134277,323.626343
	C345.431030,323.710022 345.625793,323.838654 345.746857,323.788696
	C359.243378,318.216431 359.252838,318.211731 364.664124,331.645355
	C365.591797,333.948334 366.395935,336.301086 367.519653,339.257996
	C366.026886,341.530609 364.543152,343.850006 362.462616,344.688202
	C357.337677,346.752960 354.975769,350.032379 354.978668,355.610504
	C355.035339,464.598999 355.013763,573.587524 355.021393,682.576050
	C355.021515,684.316956 355.186920,686.057861 355.345001,689.175293
	C356.932373,687.166748 357.758057,686.286255 358.395782,685.285950
	C360.887695,681.377197 363.295441,677.414917 365.779053,673.500793
	C377.263519,655.401611 388.970337,637.439514 400.206696,619.187805
	C415.699890,594.021545 430.901154,568.674744 446.116608,543.338684
	C459.153137,521.630920 471.493774,499.546997 481.232880,476.111755
	C487.880951,460.114532 494.512115,444.110291 501.150879,428.109192
	C503.398254,428.058746 505.645599,428.008301 508.299744,428.453735
	C508.410370,430.551117 508.374237,432.257568 507.776855,433.737518
	C503.087128,445.356110 498.417603,456.985931 493.490814,468.504974
	C488.306427,480.626251 482.844269,492.628723 477.148987,505.483154
	C536.277832,520.037048 594.860535,534.456543 654.025146,549.019226
	C654.401855,547.096375 654.922119,545.405823 655.025391,543.690186
	C655.185181,541.035217 655.102783,538.362244 655.049011,535.698364
	C654.730347,519.910034 654.438965,504.120819 654.022339,488.334930
	C653.920715,484.485687 653.384399,480.647888 653.047974,476.804840
	C654.579102,477.725739 656.308411,478.427551 657.608398,479.603912
	C664.753052,486.069092 671.826355,492.614777 678.823547,499.239075
	C679.653992,500.025299 680.300049,501.456665 680.306946,502.593384
	C680.384583,515.385132 680.370972,528.178101 680.271057,540.969910
	C680.226929,546.620178 679.920227,552.268188 679.752197,557.917786
	C679.594177,563.232056 677.203369,566.794250 672.307373,569.257812
	C634.323486,588.370911 596.415771,607.635315 558.493591,626.870789
	C527.815857,642.431702 497.147552,658.011108 466.481293,673.594482
	C437.776428,688.181091 409.060120,702.745422 380.389526,717.399048
	C370.055267,722.680969 359.804443,728.129395 349.584503,733.629944
	C344.828247,736.189880 340.571167,736.266174 335.513031,733.713318
	C277.208405,704.287048 218.797577,675.071167 160.407974,645.813416
	C112.097488,621.606018 63.846859,597.276978 15.391026,573.363892
	C7.679952,569.558533 4.707231,564.288940 4.735883,556.143250
	C4.846665,524.648560 4.739590,493.153168 4.749985,461.658020
	C4.777816,377.332092 4.819737,293.006134 4.870589,208.680206
	C4.875814,200.016129 4.923334,191.351273 5.053923,182.688324
	C5.162352,175.495392 7.940394,170.217667 14.932178,166.976654
	C29.547924,160.201569 44.002270,153.064865 58.386269,145.805954
	C93.704277,127.982666 128.948593,110.013298 164.215378,92.088562
	C189.949661,79.008820 215.688248,65.937370 241.396378,52.806374
	C272.011444,37.169048 302.659241,21.593245 333.143372,5.704054
	C339.659332,2.307743 345.342102,2.065569 351.937592,5.415727
	C389.388763,24.439030 426.976227,43.193909 464.508148,62.058380
	C496.562500,78.169685 528.604065,94.306412 560.652039,110.430328
	C587.774902,124.076309 614.892578,137.732574 642.025513,151.358490
	C652.564270,156.650940 663.089783,161.974243 673.718628,167.080841
	C678.571716,169.412506 680.871948,172.533218 680.803772,178.297256
	C680.159546,232.761246 679.772705,287.228333 679.340576,341.694763
	C679.266785,350.996582 679.330139,360.299469 679.330139,370.377106
	C677.779663,369.287628 676.332397,368.431976 675.081055,367.349792
	C673.572388,366.045044 672.231384,364.546661 670.815430,363.134399
	C663.650208,355.987732 663.609009,355.934937 655.653015,362.074738
	C653.231262,363.943634 651.251099,364.200928 649.318115,361.591278
	C647.852783,359.612854 646.371826,357.645935 645.210083,355.312469
	C647.713440,354.459869 651.689819,354.229919 651.806091,353.435089
	C652.562256,348.268585 652.479431,342.979309 652.671204,337.730225
M29.310204,254.739563
	C29.374012,255.491592 29.437820,256.243622 29.306768,257.914612
	C29.327299,266.573822 29.365124,275.233002 29.365686,283.892212
	C29.371353,370.994843 29.366529,458.097443 29.400656,545.200073
	C29.401411,547.126221 29.826860,549.052185 30.105789,551.675720
	C31.921061,553.028137 33.581032,554.690857 35.573990,555.688171
	C113.621101,594.742432 191.698593,633.735962 269.771942,672.737793
	C288.779694,682.233093 307.786774,691.729736 327.088806,701.725586
	C327.539001,701.765625 327.989227,701.805725 328.439453,701.845764
	C328.251923,701.343506 328.064392,700.841309 327.829346,699.619568
	C319.061401,684.950134 310.248291,670.307495 301.534698,655.605896
	C281.651703,622.059204 261.817474,588.483521 242.297852,554.364746
	C244.045959,552.825928 245.794083,551.287109 247.979294,550.364441
	C250.892883,555.774719 253.633667,561.286743 256.748108,566.578796
	C276.794312,600.641418 296.911835,634.662109 317.032867,668.680603
	C320.673187,674.835144 324.437988,680.916077 328.145325,687.031067
	C329.190033,685.466736 329.330780,684.354614 329.331146,683.242554
	C329.340637,652.261902 329.322815,621.281189 329.336151,590.300537
	C329.367096,518.338135 329.412323,446.375763 329.450317,374.413391
	C329.453308,368.758423 329.501465,363.102722 329.428192,357.448669
	C329.336243,350.356873 326.401489,345.527557 319.575989,342.314453
	C300.937317,333.540314 282.582336,324.163605 264.115967,315.023560
	C213.997925,290.217255 163.872589,265.425690 113.765961,240.596390
	C88.743790,228.197159 63.758072,215.724396 38.749069,203.298584
	C36.919712,202.389664 35.034950,201.592255 32.498184,200.433395
	C61.314461,265.259186 90.793472,328.653503 117.796654,393.532257
	C112.532310,394.902222 110.201782,393.140869 108.838936,389.563721
	C107.773544,386.767303 106.793152,383.931976 105.587135,381.196716
	C96.473351,360.526306 87.359123,339.855774 78.156944,319.224609
	C63.100468,285.468140 47.977322,251.741379 32.807476,217.300278
	C31.835743,215.299515 30.864006,213.298737 29.892271,211.297974
	C29.677013,211.401306 29.461756,211.504623 29.246498,211.607956
	C29.371855,214.406540 29.497211,217.205124 29.325769,220.895645
	C29.384394,230.928894 29.443018,240.962158 29.309021,251.735352
	C29.373230,252.491409 29.437437,253.247482 29.310204,254.739563
M199.343689,255.148224
	C245.788040,278.336456 292.232391,301.524719 338.836304,324.792633
	C338.836304,321.207458 338.836487,317.944397 338.836304,314.681305
	C338.833679,271.704437 338.780365,228.727432 338.906616,185.750961
	C338.919220,181.452515 337.699615,179.752441 333.251282,179.928040
	C325.433746,180.236572 317.598541,180.135986 309.770721,180.137222
	C225.149567,180.150528 140.528427,180.150284 55.907280,180.153717
	C54.220646,180.153793 52.534016,180.153717 50.026211,180.153717
	C100.195847,205.388184 149.416580,230.145370 199.343689,255.148224
M338.813538,170.073761
	C338.813538,124.071274 338.813538,78.068787 338.813538,31.390718
	C244.607788,78.742035 150.471909,125.373688 57.308601,173.731506
	C72.873703,174.107254 88.124062,174.117966 103.374405,174.105194
	C144.842682,174.070465 186.310959,174.028702 227.779236,173.984192
	C263.428650,173.945923 299.078033,173.891144 334.727448,173.879349
	C336.871277,173.878632 338.826965,173.926361 338.813538,170.073761
M402.677124,678.129700
	C414.166473,672.269775 425.648987,666.396362 437.146484,660.552429
	C468.514465,644.608704 499.868011,628.636414 531.266235,612.752502
	C564.470398,595.955078 597.729309,579.266113 630.937561,562.476868
	C635.724426,560.056763 640.361877,557.340942 645.856750,554.329895
	C643.970520,553.679199 643.096863,553.287292 642.181519,553.075562
	C625.466492,549.209045 608.711304,545.510132 592.034729,541.485229
	C554.021790,532.310669 516.029419,523.048401 478.081146,513.610962
	C473.923828,512.577026 472.128998,514.012573 470.258148,517.301819
	C461.243439,533.150757 452.383148,549.102295 442.856049,564.642151
	C417.520660,605.967163 391.862274,647.094116 366.361145,688.317688
	C364.301178,691.647766 362.461853,695.114319 360.519989,698.517456
	C360.902527,698.847961 361.285034,699.178467 361.667572,699.508972
	C375.128296,692.515381 388.589050,685.521790 402.677124,678.129700
z"/>
<path fill="none" opacity="1.000000" stroke="none"
	d="
M500.698914,428.066284
	C494.512115,444.110291 487.880951,460.114532 481.232880,476.111755
	C471.493774,499.546997 459.153137,521.630920 446.116608,543.338684
	C430.901154,568.674744 415.699890,594.021545 400.206696,619.187805
	C388.970337,637.439514 377.263519,655.401611 365.779053,673.500793
	C363.295441,677.414917 360.887695,681.377197 358.395782,685.285950
	C357.758057,686.286255 356.932373,687.166748 355.345001,689.175293
	C355.186920,686.057861 355.021515,684.316956 355.021393,682.576050
	C355.013763,573.587524 355.035339,464.598999 354.978668,355.610504
	C354.975769,350.032379 357.337677,346.752960 362.462616,344.688202
	C364.543152,343.850006 366.026886,341.530609 367.770630,339.514130
	C369.244568,341.631195 370.840637,344.060577 372.198944,346.616302
	C390.985687,381.965393 419.768494,406.026337 457.139496,419.189301
	C470.845490,424.016876 485.840179,425.185608 500.698914,428.066284
z"/>
<path fill="#CBD542" opacity="1.000000" stroke="none"
	d="
M393.393982,189.347076
	C409.764404,167.390396 430.200745,151.271866 455.415558,141.328476
	C473.904022,134.037628 493.085236,130.257477 512.938354,131.192749
	C548.294006,132.858322 579.687683,144.625137 606.114868,168.744675
	C631.736694,192.129135 646.291443,220.968216 650.316528,255.411240
	C654.221497,288.826965 647.072266,319.805145 630.877136,348.949982
	C629.362854,351.675171 627.198669,354.039307 627.316772,354.491333
	C631.653137,359.989563 635.746460,365.706360 640.419373,370.901886
	C643.108704,373.891998 644.211792,376.053528 640.901428,379.200745
	C632.108093,387.560791 623.445129,396.057922 615.370789,403.879944
	C611.957397,400.970276 608.071655,398.010437 604.597717,394.627747
	C595.742126,386.004639 595.924438,386.103516 585.604065,392.534088
	C566.377441,404.514130 545.373840,410.991699 522.803711,413.180237
	C497.581146,415.625946 473.439941,412.200287 450.189850,402.171722
	C434.133362,395.246002 419.562134,385.823975 407.536407,373.302155
	C385.251801,350.098267 370.563324,322.713287 366.903778,290.329773
	C362.783478,253.868683 371.256683,220.433640 392.504608,190.371124
	C392.695496,190.101013 392.945801,189.872894 393.393982,189.347076
M626.082031,260.768372
	C621.721008,224.692261 604.637329,196.112488 574.631958,175.763153
	C550.319336,159.274582 523.207947,153.280899 493.962982,156.800247
	C470.712860,159.598175 449.687378,167.981918 432.199921,183.409851
	C400.756287,211.150345 386.832184,246.127045 391.777588,288.140686
	C395.751740,321.903107 412.603394,348.182312 440.020782,367.322083
	C467.371857,386.415558 498.063416,393.173065 531.067871,386.959747
	C569.061462,379.807220 596.367188,358.059906 614.171814,324.163055
	C624.426819,304.639526 627.690491,283.595367 626.082031,260.768372
z"/>
<path fill="none" opacity="1.000000" stroke="none"
	d="
M653.049133,476.451050
	C653.384399,480.647888 653.920715,484.485687 654.022339,488.334930
	C654.438965,504.120819 654.730347,519.910034 655.049011,535.698364
	C655.102783,538.362244 655.185181,541.035217 655.025391,543.690186
	C654.922119,545.405823 654.401855,547.096375 654.025146,549.019226
	C594.860535,534.456543 536.277832,520.037048 477.148987,505.483154
	C482.844269,492.628723 488.306427,480.626251 493.490814,468.504974
	C498.417603,456.985931 503.087128,445.356110 507.776855,433.737518
	C508.374237,432.257568 508.410370,430.551117 508.707153,428.560883
	C527.067383,426.870544 545.418579,425.291779 562.645569,418.164490
	C571.053589,414.685883 579.240906,410.607178 587.290833,406.351196
	C593.470947,403.083832 595.751160,403.172638 599.494812,407.997223
	C601.458313,410.527649 601.630432,412.775604 599.366272,415.057404
	C596.712524,417.731842 597.008423,419.790955 599.800415,422.483643
	C616.562195,438.649231 633.160278,454.985016 649.747314,471.330627
	C651.100220,472.663849 651.960876,474.496643 653.049133,476.451050
z"/>
<path fill="#45AD43" opacity="1.000000" stroke="none"
	d="
M771.206177,474.794189
	C777.906189,481.268127 784.632385,487.275391 786.329224,496.783051
	C787.786621,504.949249 787.033936,512.852417 781.988464,519.528503
	C777.712341,525.186584 772.974792,530.682800 767.622986,535.302368
	C756.204895,545.158142 740.914612,544.323242 729.454773,533.145874
	C699.194214,503.631256 669.217468,473.825775 639.056519,444.208618
	C631.718689,437.002991 624.188599,429.986389 616.581604,423.064606
	C613.345825,420.120300 613.479553,417.954315 616.582092,414.918488
	C630.027466,401.762421 643.322021,388.451111 656.579041,375.104614
	C659.643555,372.019470 662.205200,372.454346 665.123047,375.206909
	C683.869385,392.891357 702.651367,410.538208 721.444031,428.173584
	C737.932556,443.646790 754.450378,459.088867 771.206177,474.794189
z"/>
<path fill="none" opacity="1.000000" stroke="none"
	d="
M652.364990,337.878235
	C652.479431,342.979309 652.562256,348.268585 651.806091,353.435089
	C651.689819,354.229919 647.713440,354.459869 645.054260,354.984680
	C644.866760,353.558319 644.855408,351.957062 645.481262,350.664246
	C647.549805,346.391571 649.848450,342.230286 652.364990,337.878235
z"/>
<path fill="none" opacity="1.000000" stroke="none"
	d="
M241.963425,554.919678
	C261.817474,588.483521 281.651703,622.059204 301.534698,655.605896
	C310.248291,670.307495 319.061401,684.950134 327.568481,700.183960
	C327.136414,700.907471 326.965271,701.066650 326.794128,701.225769
	C307.786774,691.729736 288.779694,682.233093 269.771942,672.737793
	C191.698593,633.735962 113.621101,594.742432 35.573990,555.688171
	C33.581032,554.690857 31.921061,553.028137 30.366255,551.026733
	C30.751102,549.398193 30.984243,548.418701 30.984415,547.439209
	C31.001013,452.051819 31.006445,356.664398 30.937687,261.277039
	C30.936659,259.849579 30.001064,258.422791 29.501627,256.995667
	C29.437820,256.243622 29.374012,255.491592 29.682579,254.293747
	C29.870516,252.897095 29.686079,251.946243 29.501642,250.995407
	C29.443018,240.962158 29.384394,230.928894 29.741352,220.357834
	C31.065388,219.214035 31.973843,218.608063 32.882298,218.002075
	C47.977322,251.741379 63.100468,285.468140 78.156944,319.224609
	C87.359123,339.855774 96.473351,360.526306 105.587135,381.196716
	C106.793152,383.931976 107.773544,386.767303 108.838936,389.563721
	C110.201782,393.140869 112.532310,394.902222 117.796654,393.532257
	C90.793472,328.653503 61.314461,265.259186 32.498184,200.433395
	C35.034950,201.592255 36.919712,202.389664 38.749069,203.298584
	C63.758072,215.724396 88.743790,228.197159 113.765961,240.596390
	C163.872589,265.425690 213.997925,290.217255 264.115967,315.023560
	C282.582336,324.163605 300.937317,333.540314 319.575989,342.314453
	C326.401489,345.527557 329.336243,350.356873 329.428192,357.448669
	C329.501465,363.102722 329.453308,368.758423 329.450317,374.413391
	C329.412323,446.375763 329.367096,518.338135 329.336151,590.300537
	C329.322815,621.281189 329.340637,652.261902 329.331146,683.242554
	C329.330780,684.354614 329.190033,685.466736 328.145325,687.031067
	C324.437988,680.916077 320.673187,674.835144 317.032867,668.680603
	C296.911835,634.662109 276.794312,600.641418 256.748108,566.578796
	C253.633667,561.286743 250.892883,555.774719 247.847946,549.657166
	C250.205566,542.434448 249.098770,535.893616 248.272110,529.311646
	C253.296814,527.352966 257.904266,525.434326 262.808777,523.751953
	C264.236969,525.200195 265.344055,526.435730 266.503326,527.620361
	C271.853516,533.087585 282.037933,535.014221 289.252197,531.942200
	C296.543518,528.837402 300.337646,522.086304 299.961182,512.887329
	C299.656494,505.442596 294.500275,499.038177 286.717102,496.562408
	C284.684601,495.915863 282.578735,495.500031 280.449097,494.606262
	C278.612671,484.022247 276.833679,473.810211 275.391968,463.369751
	C276.124878,462.843109 276.489319,462.486755 276.920746,462.255341
	C284.851868,458.001343 288.429718,451.383087 286.800018,442.538513
	C285.252930,434.142334 280.196381,428.158173 271.608246,426.996246
	C266.645111,426.324738 261.382263,427.868561 255.948654,428.196808
	C246.142441,419.292542 236.641876,410.606750 227.301239,401.398743
	C227.910583,399.102356 228.535599,397.351868 228.778549,395.549866
	C229.754730,388.309387 227.938858,381.893677 222.221054,377.130280
	C216.652481,372.491180 210.182144,370.462769 203.175598,373.323853
	C194.881439,376.710754 190.617004,383.304932 189.372833,392.315918
	C186.346542,393.384338 183.714859,394.404205 181.011414,395.171143
	C166.024307,399.422943 150.999115,403.542664 136.048035,407.916351
	C134.239304,408.445465 132.798386,410.231995 131.179382,410.939545
	C127.556442,400.361053 120.476128,394.663574 112.098259,395.095062
	C102.283791,395.600494 95.157585,401.858185 92.541412,412.319519
	C92.470215,414.019104 92.619888,415.473572 92.879578,417.298401
	C94.431549,425.905853 100.228638,430.286896 107.002014,434.049683
	C104.773758,445.480316 102.667351,456.523407 100.675339,467.587097
	C100.487793,468.628693 101.020432,469.799988 100.785141,470.951904
	C87.617928,471.940369 81.049065,477.440857 78.549759,489.293213
	C78.493675,490.661926 78.652565,491.805969 78.906860,493.325195
	C81.474190,503.687958 88.792587,509.946320 98.067635,510.004211
	C108.486412,510.069275 115.610603,504.389191 118.459435,493.664368
	C118.536446,491.625488 118.386063,489.849396 118.131104,487.698853
	C116.494972,479.302704 111.354973,474.512939 104.380096,471.492432
	C105.460068,469.879669 106.579544,468.531250 106.839172,467.033722
	C108.735146,456.098206 110.458450,445.132721 112.626968,434.136780
	C123.824867,432.374359 129.734146,427.136871 131.600281,417.983032
	C132.580490,417.897552 133.139542,417.829102 134.021912,417.787109
	C150.563065,429.602325 166.780945,441.391083 183.007751,453.532196
	C183.741089,454.589874 184.465500,455.295227 185.201263,456.419556
	C185.215378,461.248688 183.667023,466.531494 185.552322,469.882507
	C189.181458,476.333130 186.097382,479.839203 182.280365,483.813385
	C181.591629,484.530487 180.868027,485.216583 180.211777,485.962158
	C170.815475,496.638153 161.427963,507.321869 151.645538,517.955444
	C135.768127,512.973694 125.571663,518.220459 121.564903,533.308838
	C121.486351,535.010742 121.634804,536.470581 121.897118,538.300903
	C124.618103,548.647766 132.375168,555.007568 141.582474,554.717407
	C151.254013,554.412659 158.774277,547.997620 160.664551,538.254150
	C161.926163,531.751221 158.566589,526.357483 156.383820,520.504028
	C167.030945,508.794312 177.501892,497.407471 187.784119,485.852722
	C190.654861,482.626648 193.211075,480.349701 197.850311,482.780365
	C199.796371,483.799988 202.495560,484.211029 204.657166,483.819946
	C209.326035,482.975220 210.665359,485.507599 211.922806,489.180725
	C215.467789,499.536041 219.282364,509.799042 222.680618,520.382690
	C221.569382,521.247620 220.799530,521.878601 219.962036,522.401123
	C212.926147,526.791138 208.915649,532.985291 210.122665,541.383057
	C211.305801,549.614746 215.812897,555.648132 224.201141,558.496033
	C224.571762,558.835693 224.833542,558.931580 225.569794,558.955566
	C231.951797,560.068542 237.014572,557.718506 241.963425,554.919678
z"/>
<path fill="none" opacity="1.000000" stroke="none"
	d="
M198.990509,255.025391
	C149.416580,230.145370 100.195847,205.388184 50.026211,180.153717
	C52.534016,180.153717 54.220646,180.153793 55.907280,180.153717
	C140.528427,180.150284 225.149567,180.150528 309.770721,180.137222
	C317.598541,180.135986 325.433746,180.236572 333.251282,179.928040
	C337.699615,179.752441 338.919220,181.452515 338.906616,185.750961
	C338.780365,228.727432 338.833679,271.704437 338.836304,314.681305
	C338.836487,317.944397 338.836304,321.207458 338.836304,324.792633
	C292.232391,301.524719 245.788040,278.336456 198.990509,255.025391
z"/>
<path fill="none" opacity="1.000000" stroke="none"
	d="
M338.801392,170.535294
	C338.826965,173.926361 336.871277,173.878632 334.727448,173.879349
	C299.078033,173.891144 263.428650,173.945923 227.779236,173.984192
	C186.310959,174.028702 144.842682,174.070465 103.374405,174.105194
	C88.124062,174.117966 72.873703,174.107254 57.308601,173.731506
	C150.471909,125.373688 244.607788,78.742035 338.813538,31.390718
	C338.813538,78.068787 338.813538,124.071274 338.801392,170.535294
z"/>
<path fill="none" opacity="1.000000" stroke="none"
	d="
M402.363464,678.328979
	C388.589050,685.521790 375.128296,692.515381 361.667572,699.508972
	C361.285034,699.178467 360.902527,698.847961 360.519989,698.517456
	C362.461853,695.114319 364.301178,691.647766 366.361145,688.317688
	C391.862274,647.094116 417.520660,605.967163 442.856049,564.642151
	C452.383148,549.102295 461.243439,533.150757 470.258148,517.301819
	C472.128998,514.012573 473.923828,512.577026 478.081146,513.610962
	C516.029419,523.048401 554.021790,532.310669 592.034729,541.485229
	C608.711304,545.510132 625.466492,549.209045 642.181519,553.075562
	C643.096863,553.287292 643.970520,553.679199 645.856750,554.329895
	C640.361877,557.340942 635.724426,560.056763 630.937561,562.476868
	C597.729309,579.266113 564.470398,595.955078 531.266235,612.752502
	C499.868011,628.636414 468.514465,644.608704 437.146484,660.552429
	C425.648987,666.396362 414.166473,672.269775 402.363464,678.328979
z"/>
<path fill="#45AD43" opacity="1.000000" stroke="none"
	d="
M247.854858,529.351807
	C249.098770,535.893616 250.205566,542.434448 247.629395,549.349121
	C245.794083,551.287109 244.045959,552.825928 242.130646,554.642212
	C237.014572,557.718506 231.951797,560.068542 225.447510,558.768982
	C224.656296,558.323181 224.382812,558.245544 224.061325,558.336914
	C215.812897,555.648132 211.305801,549.614746 210.122665,541.383057
	C208.915649,532.985291 212.926147,526.791138 219.962036,522.401123
	C220.799530,521.878601 221.569382,521.247620 222.980042,520.355835
	C225.751144,519.766724 227.912750,519.488647 230.412262,519.340454
	C235.655563,521.661560 240.561005,523.852905 245.546097,526.328247
	C246.368790,527.525452 247.111832,528.438599 247.854858,529.351807
M232.837662,531.393005
	C232.197281,531.245972 231.494110,531.222046 230.926346,530.932556
	C225.834030,528.335999 223.045044,532.050964 220.661819,535.210876
	C218.027145,538.704224 219.441849,542.545288 222.192566,545.398865
	C224.888382,548.195374 228.287689,549.808228 232.340683,547.812378
	C238.128540,544.962219 238.635406,537.466980 232.837662,531.393005
z"/>
<path fill="none" opacity="1.000000" stroke="none"
	d="
M29.404198,257.455139
	C30.001064,258.422791 30.936659,259.849579 30.937687,261.277039
	C31.006445,356.664398 31.001013,452.051819 30.984415,547.439209
	C30.984243,548.418701 30.751102,549.398193 30.340458,550.677979
	C29.826860,549.052185 29.401411,547.126221 29.400656,545.200073
	C29.366529,458.097443 29.371353,370.994843 29.365686,283.892212
	C29.365124,275.233002 29.327299,266.573822 29.404198,257.455139
z"/>
<path fill="none" opacity="1.000000" stroke="none"
	d="
M32.844887,217.651184
	C31.973843,218.608063 31.065388,219.214035 29.889750,219.911865
	C29.497211,217.205124 29.371855,214.406540 29.246498,211.607956
	C29.461756,211.504623 29.677013,211.401306 29.892271,211.297974
	C30.864006,213.298737 31.835743,215.299515 32.844887,217.651184
z"/>
<path fill="none" opacity="1.000000" stroke="none"
	d="
M29.405331,251.365387
	C29.686079,251.946243 29.870516,252.897095 29.778299,253.925735
	C29.437437,253.247482 29.373230,252.491409 29.405331,251.365387
z"/>
<path fill="none" opacity="1.000000" stroke="none"
	d="
M327.592224,700.543701
	C328.064392,700.841309 328.251923,701.343506 328.439453,701.845825
	C327.989227,701.805725 327.539001,701.765625 326.941467,701.475708
	C326.965271,701.066650 327.136414,700.907471 327.592224,700.543701
z"/>
<path fill="#FFF8E7" opacity="1.000000" stroke="none"
	d="
M626.095825,261.242188
	C627.690491,283.595367 624.426819,304.639526 614.171814,324.163055
	C596.367188,358.059906 569.061462,379.807220 531.067871,386.959747
	C498.063416,393.173065 467.371857,386.415558 440.020782,367.322083
	C412.603394,348.182312 395.751740,321.903107 391.777588,288.140686
	C386.832184,246.127045 400.756287,211.150345 432.199921,183.409851
	C449.687378,167.981918 470.712860,159.598175 493.962982,156.800247
	C523.207947,153.280899 550.319336,159.274582 574.631958,175.763153
	C604.637329,196.112488 621.721008,224.692261 626.095825,261.242188
M609.152222,318.070190
	C611.319641,312.192932 614.033813,306.454285 615.565002,300.415710
	C624.955139,263.384674 616.398621,230.250641 591.532043,201.876129
	C576.637268,184.880112 556.436035,176.095993 534.317200,172.058807
	C527.135925,170.748077 519.872620,168.829987 511.053070,171.728851
	C514.712280,173.043381 517.076416,174.125900 519.556335,174.744675
	C532.855896,178.063095 545.563416,182.862137 556.714478,190.917053
	C562.791565,195.306808 568.193665,200.630936 574.369751,205.937073
	C571.777649,207.746002 570.387390,208.951813 568.801819,209.786606
	C551.367065,218.965958 533.939270,228.159882 516.436707,237.208862
	C485.456268,253.226044 454.421997,269.139130 423.418213,285.111206
	C416.939972,288.448547 410.449554,291.767792 404.062256,295.273041
	C401.865814,296.478394 399.011902,297.649170 400.469360,301.233215
	C403.085480,307.666290 405.688995,314.104492 408.141174,321.336121
	C408.689850,323.042389 408.950470,324.916229 409.830750,326.429565
	C421.446991,346.399902 437.062500,361.968018 458.328339,371.811981
	C480.196533,381.934784 503.034882,385.471405 526.593445,381.715485
	C559.615540,376.450775 586.080688,360.208862 603.939941,331.367279
	C606.284180,327.581543 607.216248,322.921356 609.152222,318.070190
z"/>
<path fill="#3D2D8E" opacity="1.000000" stroke="none"
	d="
M230.074371,519.210571
	C227.912750,519.488647 225.751144,519.766724 223.290100,520.071655
	C219.282364,509.799042 215.467789,499.536041 211.922806,489.180725
	C210.665359,485.507599 209.326035,482.975220 204.657166,483.819946
	C202.495560,484.211029 199.796371,483.799988 197.850311,482.780365
	C193.211075,480.349701 190.654861,482.626648 187.784119,485.852722
	C177.501892,497.407471 167.030945,508.794312 156.116638,520.440247
	C154.414047,519.758484 153.226196,518.881104 152.038330,518.003723
	C161.427963,507.321869 170.815475,496.638153 180.211777,485.962158
	C180.868027,485.216583 181.591629,484.530487 182.280365,483.813385
	C186.097382,479.839203 189.181458,476.333130 185.552322,469.882507
	C183.667023,466.531494 185.215378,461.248688 185.284912,456.094910
	C184.571091,454.627502 183.784943,453.903687 182.998810,453.179871
	C166.780945,441.391083 150.563065,429.602325 133.882721,417.432861
	C132.629044,415.184479 131.837830,413.316772 131.077591,411.449646
	C131.108582,411.450195 131.186996,411.435730 131.186996,411.435730
	C132.798386,410.231995 134.239304,408.445465 136.048035,407.916351
	C150.999115,403.542664 166.024307,399.422943 181.011414,395.171143
	C183.714859,394.404205 186.346542,393.384338 189.604919,392.668884
	C190.468887,394.726776 190.739304,396.597046 190.599457,398.498291
	C172.862381,403.442169 155.535568,408.354980 137.434326,413.487396
	C155.258041,426.168488 172.280472,438.279480 189.257812,450.358398
	C201.608978,442.253784 212.119873,442.719147 219.617035,451.613251
	C226.801987,460.137085 225.433838,470.612183 215.566269,481.187531
	C220.368607,493.773590 225.221481,506.492096 230.074371,519.210571
M215.699554,471.003601
	C218.880722,464.675842 218.652939,459.508484 214.669617,455.324860
	C210.643387,451.096069 205.821457,448.779449 199.861420,450.726379
	C193.952469,452.656616 190.112503,457.876190 189.999802,463.805817
	C189.892883,469.431152 193.678818,474.929718 199.062469,476.968231
	C204.985611,479.210999 210.446045,477.411652 215.699554,471.003601
z"/>
<path fill="#45AD43" opacity="1.000000" stroke="none"
	d="
M256.254303,428.415314
	C261.382263,427.868561 266.645111,426.324738 271.608246,426.996246
	C280.196381,428.158173 285.252930,434.142334 286.800018,442.538513
	C288.429718,451.383087 284.851868,458.001343 276.920746,462.255341
	C276.489319,462.486755 276.124878,462.843109 275.118927,463.453613
	C272.400818,464.228760 270.293030,464.691650 267.768005,465.093567
	C253.948303,463.257599 246.819504,455.434784 248.128632,443.333740
	C248.511047,439.798920 250.236084,436.409393 251.603027,432.776245
	C253.324966,431.204590 254.789642,429.809967 256.254303,428.415314
M273.806091,439.980438
	C269.895142,436.068390 266.353485,435.475372 262.479309,438.014618
	C258.191406,440.824982 258.398621,445.036499 259.574310,449.041107
	C260.897095,453.546600 264.703583,454.761200 269.054535,454.236969
	C274.202972,453.616577 276.622070,447.162933 273.806091,439.980438
z"/>
<path fill="#45AD43" opacity="1.000000" stroke="none"
	d="
M191.009720,398.467285
	C190.739304,396.597046 190.468887,394.726776 189.966370,392.503540
	C190.617004,383.304932 194.881439,376.710754 203.175598,373.323853
	C210.182144,370.462769 216.652481,372.491180 222.221054,377.130280
	C227.938858,381.893677 229.754730,388.309387 228.778549,395.549866
	C228.535599,397.351868 227.910583,399.102356 227.181686,401.502380
	C225.614258,403.710327 224.326324,405.292389 222.669434,406.944092
	C207.795273,413.729095 201.238281,412.050690 192.183731,399.335144
	C191.915390,398.958282 191.406479,398.752716 191.009720,398.467285
M215.503708,397.010254
	C218.904861,393.551392 218.413345,389.858765 215.722580,386.421173
	C213.574142,383.676453 210.705490,382.172943 207.008591,383.593170
	C202.287079,385.406982 199.944183,390.020020 201.725006,394.127045
	C204.204727,399.845856 208.802155,401.038544 215.503708,397.010254
z"/>
<path fill="#45AD43" opacity="1.000000" stroke="none"
	d="
M151.645538,517.955444
	C153.226196,518.881104 154.414047,519.758484 155.869080,520.699707
	C158.566589,526.357483 161.926163,531.751221 160.664551,538.254150
	C158.774277,547.997620 151.254013,554.412659 141.582474,554.717407
	C132.375168,555.007568 124.618103,548.647766 121.958237,537.899231
	C121.867645,535.773560 121.829773,534.420166 121.791908,533.066711
	C125.571663,518.220459 135.768127,512.973694 151.645538,517.955444
M134.922928,541.645630
	C135.366241,541.860718 135.835739,542.034546 136.248901,542.297058
	C141.211563,545.450195 146.082336,544.263733 149.192627,539.131104
	C151.522873,535.285706 149.611725,528.849670 145.494720,526.677734
	C140.495514,524.040344 136.157043,525.821960 133.121674,531.011719
	C130.816620,534.952637 132.622314,537.900757 134.922928,541.645630
z"/>
<path fill="#45AD43" opacity="1.000000" stroke="none"
	d="
M280.506561,494.978271
	C282.578735,495.500031 284.684601,495.915863 286.717102,496.562408
	C294.500275,499.038177 299.656494,505.442596 299.961182,512.887329
	C300.337646,522.086304 296.543518,528.837402 289.252197,531.942200
	C282.037933,535.014221 271.853516,533.087585 266.503326,527.620361
	C265.344055,526.435730 264.236969,525.200195 262.783356,523.466370
	C261.950562,521.481995 261.440277,520.019470 260.967560,518.082642
	C260.445648,507.633026 265.051270,500.845215 274.269958,496.649475
	C276.584137,496.067749 278.545349,495.523010 280.506561,494.978271
M289.073181,512.952271
	C288.555237,511.925293 288.180573,510.788330 287.492584,509.891815
	C285.396362,507.160370 282.774048,504.509583 279.175232,506.219604
	C276.743744,507.374908 274.061310,509.651611 273.192352,512.044495
	C272.002563,515.320862 271.933777,519.662720 275.754456,521.678223
	C278.089172,522.909851 281.463348,523.597412 283.897552,522.893433
	C287.972504,521.714966 289.061981,517.782227 289.073181,512.952271
z"/>
<path fill="#45AD43" opacity="1.000000" stroke="none"
	d="
M78.764740,489.068604
	C81.049065,477.440857 87.617928,471.940369 101.047012,470.969482
	C102.502136,471.193420 103.261826,471.440613 104.021515,471.687805
	C111.354973,474.512939 116.494972,479.302704 118.080688,488.114197
	C118.167259,490.578430 118.199661,492.252777 118.232056,493.927155
	C115.610603,504.389191 108.486412,510.069275 98.067635,510.004211
	C88.792587,509.946320 81.474190,503.687958 78.959274,492.938721
	C78.865784,491.140961 78.815262,490.104767 78.764740,489.068604
M107.631134,492.875244
	C107.609406,491.225372 107.761536,489.551025 107.533409,487.930206
	C106.845253,483.040894 103.174385,481.111145 98.982986,480.387695
	C94.360268,479.589813 91.328438,482.839172 89.893150,486.413544
	C88.562790,489.726654 88.231537,493.622894 91.647079,496.844208
	C97.270149,502.147491 103.636620,500.994354 107.631134,492.875244
z"/>
<path fill="#45AD43" opacity="1.000000" stroke="none"
	d="
M131.179382,410.939545
	C131.186996,411.435730 131.108582,411.450195 131.143494,411.920807
	C131.178650,414.260986 131.178909,416.130524 131.179153,418.000092
	C129.734146,427.136871 123.824867,432.374359 112.204262,434.074371
	C109.979004,433.923828 108.567162,433.795807 107.155327,433.667755
	C100.228638,430.286896 94.431549,425.905853 92.925812,416.895874
	C92.828796,414.773529 92.795540,413.423981 92.762291,412.074463
	C95.157585,401.858185 102.283791,395.600494 112.098259,395.095062
	C120.476128,394.663574 127.556442,400.361053 131.179382,410.939545
M116.233795,422.962219
	C121.216988,419.628540 122.510323,412.500549 118.961578,407.928650
	C116.454025,404.698120 110.097076,404.102356 107.060440,406.866180
	C103.733589,409.894104 102.282776,413.608154 103.894043,417.951447
	C105.696480,422.810120 108.667412,424.071442 116.233795,422.962219
z"/>
<path fill="#3D2D8E" opacity="1.000000" stroke="none"
	d="
M107.002014,434.049683
	C108.567162,433.795807 109.979004,433.923828 111.813553,434.114288
	C110.458450,445.132721 108.735146,456.098206 106.839172,467.033722
	C106.579544,468.531250 105.460068,469.879669 104.380096,471.492432
	C103.261826,471.440613 102.502136,471.193420 101.480583,470.928650
	C101.020432,469.799988 100.487793,468.628693 100.675339,467.587097
	C102.667351,456.523407 104.773758,445.480316 107.002014,434.049683
z"/>
<path fill="#3D2D8E" opacity="1.000000" stroke="none"
	d="
M223.038391,406.874451
	C224.326324,405.292389 225.614258,403.710327 227.021759,402.024597
	C236.641876,410.606750 246.142441,419.292542 255.948654,428.196808
	C254.789642,429.809967 253.324966,431.204590 251.469025,432.451996
	C241.731293,423.828003 232.384842,415.351227 223.038391,406.874451
z"/>
<path fill="#3D2D8E" opacity="1.000000" stroke="none"
	d="
M280.449097,494.606262
	C278.545349,495.523010 276.584137,496.067749 274.278198,496.270203
	C272.017395,485.670135 270.101318,475.412323 268.185242,465.154541
	C270.293030,464.691650 272.400818,464.228760 274.781647,463.682007
	C276.833679,473.810211 278.612671,484.022247 280.449097,494.606262
z"/>
<path fill="#3D2D8E" opacity="1.000000" stroke="none"
	d="
M260.929962,518.556885
	C261.440277,520.019470 261.950562,521.481995 262.486298,523.230164
	C257.904266,525.434326 253.296814,527.352966 248.272110,529.311646
	C247.111832,528.438599 246.368790,527.525452 245.801331,526.145630
	C250.961258,523.304993 255.945602,520.930908 260.929962,518.556885
z"/>
<path fill="none" opacity="1.000000" stroke="none"
	d="
M131.600281,417.983032
	C131.178909,416.130524 131.178650,414.260986 131.112488,411.920258
	C131.837830,413.316772 132.629044,415.184479 133.559433,417.406403
	C133.139542,417.829102 132.580490,417.897552 131.600281,417.983032
z"/>
<path fill="none" opacity="1.000000" stroke="none"
	d="
M118.459442,493.664368
	C118.199661,492.252777 118.167259,490.578430 118.185272,488.488708
	C118.386063,489.849396 118.536446,491.625488 118.459442,493.664368
z"/>
<path fill="none" opacity="1.000000" stroke="none"
	d="
M92.541412,412.319519
	C92.795540,413.423981 92.828796,414.773529 92.815811,416.525574
	C92.619888,415.473572 92.470215,414.019104 92.541412,412.319519
z"/>
<path fill="none" opacity="1.000000" stroke="none"
	d="
M183.007736,453.532227
	C183.784943,453.903687 184.571091,454.627502 185.273560,455.675934
	C184.465500,455.295227 183.741089,454.589874 183.007736,453.532227
z"/>
<path fill="none" opacity="1.000000" stroke="none"
	d="
M121.564903,533.308838
	C121.829773,534.420166 121.867645,535.773560 121.844391,537.528687
	C121.634804,536.470581 121.486351,535.010742 121.564903,533.308838
z"/>
<path fill="none" opacity="1.000000" stroke="none"
	d="
M78.549759,489.293213
	C78.815262,490.104767 78.865784,491.140961 78.863876,492.563599
	C78.652565,491.805969 78.493675,490.661926 78.549759,489.293213
z"/>
<path fill="none" opacity="1.000000" stroke="none"
	d="
M224.201141,558.496033
	C224.382812,558.245544 224.656296,558.323181 225.004059,558.756348
	C224.833542,558.931580 224.571762,558.835693 224.201141,558.496033
z"/>
<path fill="none" opacity="1.000000" stroke="none"
	d="
M260.967560,518.082642
	C255.945602,520.930908 250.961258,523.304993 245.721680,525.861633
	C240.561005,523.852905 235.655563,521.661560 230.412262,519.340454
	C225.221481,506.492096 220.368607,493.773590 215.566269,481.187531
	C225.433838,470.612183 226.801987,460.137085 219.617035,451.613251
	C212.119873,442.719147 201.608978,442.253784 189.257812,450.358398
	C172.280472,438.279480 155.258041,426.168488 137.434326,413.487396
	C155.535568,408.354980 172.862381,403.442169 190.599457,398.498291
	C191.406479,398.752716 191.915390,398.958282 192.183731,399.335144
	C201.238281,412.050690 207.795273,413.729095 222.669449,406.944092
	C232.384842,415.351227 241.731293,423.828003 251.211731,432.629028
	C250.236084,436.409393 248.511047,439.798920 248.128632,443.333740
	C246.819504,455.434784 253.948303,463.257599 267.768005,465.093567
	C270.101318,475.412323 272.017395,485.670135 273.925232,496.307190
	C265.051270,500.845215 260.445648,507.633026 260.967560,518.082642
z"/>
<path fill="none" opacity="1.000000" stroke="none"
	d="
M233.120422,531.663757
	C238.635406,537.466980 238.128540,544.962219 232.340683,547.812378
	C228.287689,549.808228 224.888382,548.195374 222.192566,545.398865
	C219.441849,542.545288 218.027145,538.704224 220.661819,535.210876
	C223.045044,532.050964 225.834030,528.335999 230.926346,530.932556
	C231.494110,531.222046 232.197281,531.245972 233.120422,531.663757
z"/>
<path fill="#FFF8E7" opacity="1.000000" stroke="none"
	d="
M608.802368,318.666168
	C607.216248,322.921356 606.284180,327.581543 603.939941,331.367279
	C586.080688,360.208862 559.615540,376.450775 526.593445,381.715485
	C503.034882,385.471405 480.196533,381.934784 458.328339,371.811981
	C437.062500,361.968018 421.446991,346.399902 409.830750,326.429565
	C408.950470,324.916229 408.689850,323.042389 408.596069,320.972961
	C410.463257,320.365814 412.064514,320.470398 413.258240,319.823273
	C423.949249,314.027649 434.426910,307.824432 445.236023,302.263367
	C475.068237,286.915222 505.033936,271.826538 534.937378,256.616638
	C540.096985,253.992264 545.198547,251.253830 550.346924,248.606995
	C563.760681,241.710861 577.185486,234.836304 590.639343,227.936005
	C592.304565,230.800812 594.285889,233.190460 595.186035,235.934753
	C599.052368,247.721817 603.353821,259.449341 605.981750,271.528137
	C607.549133,278.732178 606.577148,286.558838 606.249939,294.084015
	C605.957520,300.806946 605.021667,307.504333 604.294312,314.204834
	C603.917114,317.679749 605.246277,319.253357 608.802368,318.666168
z"/>
<path fill="#3D2D8E" opacity="1.000000" stroke="none"
	d="
M608.977295,318.368164
	C605.246277,319.253357 603.917114,317.679749 604.294312,314.204834
	C605.021667,307.504333 605.957520,300.806946 606.249939,294.084015
	C606.577148,286.558838 607.549133,278.732178 605.981750,271.528137
	C603.353821,259.449341 599.052368,247.721817 595.186035,235.934753
	C594.285889,233.190460 592.304565,230.800812 590.639343,227.936005
	C577.185486,234.836304 563.760681,241.710861 550.346924,248.606995
	C545.198547,251.253830 540.096985,253.992264 534.937378,256.616638
	C505.033936,271.826538 475.068237,286.915222 445.236023,302.263367
	C434.426910,307.824432 423.949249,314.027649 413.258240,319.823273
	C412.064514,320.470398 410.463257,320.365814 408.674377,320.575195
	C405.688995,314.104492 403.085480,307.666290 400.469360,301.233215
	C399.011902,297.649170 401.865814,296.478394 404.062256,295.273041
	C410.449554,291.767792 416.939972,288.448547 423.418213,285.111206
	C454.421997,269.139130 485.456268,253.226044 516.436707,237.208862
	C533.939270,228.159882 551.367065,218.965958 568.801819,209.786606
	C570.387390,208.951813 571.777649,207.746002 574.369751,205.937073
	C568.193665,200.630936 562.791565,195.306808 556.714478,190.917053
	C545.563416,182.862137 532.855896,178.063095 519.556335,174.744675
	C517.076416,174.125900 514.712280,173.043381 511.053070,171.728851
	C519.872620,168.829987 527.135925,170.748077 534.317200,172.058807
	C556.436035,176.095993 576.637268,184.880112 591.532043,201.876129
	C616.398621,230.250641 624.955139,263.384674 615.565002,300.415710
	C614.033813,306.454285 611.319641,312.192932 608.977295,318.368164
z"/>
<path fill="none" opacity="1.000000" stroke="none"
	d="
M215.487854,471.314484
	C210.446045,477.411652 204.985611,479.210999 199.062469,476.968231
	C193.678818,474.929718 189.892883,469.431152 189.999802,463.805817
	C190.112503,457.876190 193.952469,452.656616 199.861420,450.726379
	C205.821457,448.779449 210.643387,451.096069 214.669617,455.324860
	C218.652939,459.508484 218.880722,464.675842 215.487854,471.314484
z"/>
<path fill="none" opacity="1.000000" stroke="none"
	d="
M274.002808,440.347534
	C276.622070,447.162933 274.202972,453.616577 269.054535,454.236969
	C264.703583,454.761200 260.897095,453.546600 259.574310,449.041107
	C258.398621,445.036499 258.191406,440.824982 262.479309,438.014618
	C266.353485,435.475372 269.895142,436.068390 274.002808,440.347534
z"/>
<path fill="none" opacity="1.000000" stroke="none"
	d="
M215.234772,397.286163
	C208.802155,401.038544 204.204727,399.845856 201.725006,394.127045
	C199.944183,390.020020 202.287079,385.406982 207.008591,383.593170
	C210.705490,382.172943 213.574142,383.676453 215.722580,386.421173
	C218.413345,389.858765 218.904861,393.551392 215.234772,397.286163
z"/>
<path fill="none" opacity="1.000000" stroke="none"
	d="
M134.642456,541.366272
	C132.622314,537.900757 130.816620,534.952637 133.121674,531.011719
	C136.157043,525.821960 140.495514,524.040344 145.494720,526.677734
	C149.611725,528.849670 151.522873,535.285706 149.192627,539.131104
	C146.082336,544.263733 141.211563,545.450195 136.248901,542.297058
	C135.835739,542.034546 135.366241,541.860718 134.642456,541.366272
z"/>
<path fill="none" opacity="1.000000" stroke="none"
	d="
M289.108368,513.352295
	C289.061981,517.782227 287.972504,521.714966 283.897552,522.893433
	C281.463348,523.597412 278.089172,522.909851 275.754456,521.678223
	C271.933777,519.662720 272.002563,515.320862 273.192352,512.044495
	C274.061310,509.651611 276.743744,507.374908 279.175232,506.219604
	C282.774048,504.509583 285.396362,507.160370 287.492584,509.891815
	C288.180573,510.788330 288.555237,511.925293 289.108368,513.352295
z"/>
<path fill="none" opacity="1.000000" stroke="none"
	d="
M107.501343,493.250671
	C103.636620,500.994354 97.270149,502.147491 91.647079,496.844208
	C88.231537,493.622894 88.562790,489.726654 89.893150,486.413544
	C91.328438,482.839172 94.360268,479.589813 98.982986,480.387695
	C103.174385,481.111145 106.845253,483.040894 107.533409,487.930206
	C107.761536,489.551025 107.609406,491.225372 107.501343,493.250671
z"/>
<path fill="none" opacity="1.000000" stroke="none"
	d="
M115.910233,423.187744
	C108.667412,424.071442 105.696480,422.810120 103.894043,417.951447
	C102.282776,413.608154 103.733589,409.894104 107.060440,406.866180
	C110.097076,404.102356 116.454025,404.698120 118.961578,407.928650
	C122.510323,412.500549 121.216988,419.628540 115.910233,423.187744
z"/>

<path fill="none" stroke="#3D2D8E" stroke-width="1.5" 
	d="
M477.148987,505.483154
	C482.844269,492.628723 488.306427,480.626251 493.490814,468.504974
	C498.417603,456.985931 503.087128,445.356110 507.776855,433.737518
	C508.374237,432.257568 508.410370,430.551117 508.707153,428.560883
z"/>
</svg>
